<svg xmlns="http://www.w3.org/2000/svg" width="80" height="80" viewBox="0 0 1200 900" version="1.1"><path d="M 324.500 256.072 C 252.856 261.825, 190.398 320.813, 180.913 391.681 C 179.290 403.803, 180.333 428.702, 182.990 441.288 C 191.964 483.790, 215.752 519.749, 249.961 542.523 C 265.865 553.110, 282.034 559.798, 302.396 564.211 C 310.954 566.066, 315.714 566.406, 333.500 566.432 C 362.118 566.473, 383.605 563.531, 405.659 556.552 C 437.304 546.538, 458 528.490, 458 510.905 C 458 504.331, 456.999 501.114, 453.264 495.687 C 446.717 486.172, 436.556 484.206, 415.669 488.415 C 401.111 491.348, 395.406 491.614, 390.553 489.587 C 387.265 488.213, 387.141 488.248, 386.105 490.837 C 385.518 492.302, 383.949 498.712, 382.618 505.083 C 378.369 525.417, 370.519 536.528, 355.292 543.759 C 348.321 547.070, 346.517 547.489, 337.719 547.842 C 322.395 548.458, 311.647 544.423, 301.582 534.277 C 293.944 526.578, 290.336 519.195, 287.391 505.235 C 286.029 498.781, 284.014 491.629, 282.913 489.342 C 281.812 487.055, 277.089 481.037, 272.418 475.969 C 258.058 460.387, 251.555 449.891, 246.724 434.500 C 236.094 400.629, 245.460 364.821, 271.361 340.304 C 284.824 327.559, 299.187 320.045, 316.957 316.447 C 328.286 314.154, 349.179 314.891, 359.883 317.962 C 367.942 320.275, 380.614 326.262, 387.554 331.037 C 403.360 341.912, 416.008 358.945, 422.557 378.177 C 429.660 399.034, 427.989 426.722, 418.445 446.307 C 417.053 449.163, 416.498 450.825, 417.211 450 C 417.924 449.175, 419.181 448.356, 420.004 448.181 C 425.493 447.011, 444.134 432.242, 452.058 422.784 C 465.835 406.341, 471.324 388.004, 468.952 366.351 C 466.804 346.745, 461.227 330.147, 451.463 314.299 C 445.401 304.460, 427.390 286.240, 416.568 279 C 390.882 261.816, 357.254 253.441, 324.500 256.072 M 821.405 344 L 821.500 349.500 831 349.765 C 839.234 349.995, 840.733 350.309, 842.250 352.126 C 843.212 353.278, 844 353.791, 844 353.266 C 844 352.740, 843.177 351.565, 842.171 350.655 C 840.751 349.370, 838.306 349, 831.224 349 L 822.105 349 821.707 343.750 L 821.309 338.500 821.405 344 M 803.431 364.500 C 803.432 377.700, 803.574 382.962, 803.747 376.193 C 803.921 369.424, 803.920 358.624, 803.746 352.193 C 803.572 345.762, 803.431 351.300, 803.431 364.500 M 540.776 348.733 C 543.128 348.945, 546.728 348.942, 548.776 348.727 C 550.824 348.512, 548.900 348.339, 544.500 348.343 C 540.100 348.346, 538.424 348.522, 540.776 348.733 M 604.250 348.728 C 606.313 348.944, 609.688 348.944, 611.750 348.728 C 613.813 348.513, 612.125 348.336, 608 348.336 C 603.875 348.336, 602.188 348.513, 604.250 348.728 M 646.250 348.728 C 648.313 348.944, 651.688 348.944, 653.750 348.728 C 655.813 348.513, 654.125 348.336, 650 348.336 C 645.875 348.336, 644.188 348.513, 646.250 348.728 M 711.750 348.732 C 714.087 348.943, 717.913 348.943, 720.250 348.732 C 722.587 348.522, 720.675 348.349, 716 348.349 C 711.325 348.349, 709.413 348.522, 711.750 348.732 M 691.160 358.095 C 690.959 362.619, 693.617 365.331, 697.662 364.725 C 700.500 364.300, 700.500 364.300, 697.372 364.150 C 693.569 363.968, 692.294 362.574, 691.742 357.996 L 691.320 354.500 691.160 358.095 M 757.425 385 C 757.425 396.825, 757.569 401.663, 757.746 395.750 C 757.923 389.837, 757.923 380.163, 757.746 374.250 C 757.569 368.337, 757.425 373.175, 757.425 385 M 821.392 377 C 821.392 384.425, 821.549 387.462, 821.742 383.750 C 821.934 380.038, 821.934 373.962, 821.742 370.250 C 821.549 366.538, 821.392 369.575, 821.392 377 M 745.400 382.500 C 745.401 390.750, 745.556 393.992, 745.744 389.704 C 745.932 385.417, 745.931 378.667, 745.742 374.704 C 745.552 370.742, 745.399 374.250, 745.400 382.500 M 775.420 387.500 C 775.419 398.500, 775.565 403.136, 775.745 397.803 C 775.924 392.470, 775.925 383.470, 775.746 377.803 C 775.568 372.136, 775.421 376.500, 775.420 387.500 M 580.411 389 C 580.411 398.625, 580.561 402.563, 580.745 397.750 C 580.928 392.938, 580.928 385.063, 580.745 380.250 C 580.561 375.438, 580.411 379.375, 580.411 389 M 637.413 389.500 C 637.414 399.400, 637.564 403.315, 637.746 398.199 C 637.928 393.084, 637.927 384.984, 637.744 380.199 C 637.561 375.415, 637.412 379.600, 637.413 389.500 M 677.411 389 C 677.411 398.625, 677.561 402.563, 677.745 397.750 C 677.928 392.938, 677.928 385.063, 677.745 380.250 C 677.561 375.438, 677.411 379.375, 677.411 389 M 292.840 374.911 C 291.504 375.962, 289.564 378.395, 288.529 380.317 C 286.804 383.519, 286.777 384.010, 288.202 386.185 C 289.057 387.491, 299.824 396.180, 312.129 405.495 C 332.613 421.002, 334.837 422.425, 338.500 422.372 C 343.993 422.293, 376.714 403.988, 377.588 400.506 C 378.625 396.375, 373.270 387.998, 369.595 388.002 C 368.443 388.004, 361.480 391.379, 354.123 395.502 C 346.765 399.626, 340.114 403, 339.342 403 C 338.569 403, 330.655 397.488, 321.754 390.750 C 303.027 376.574, 297.932 373.010, 296.385 373.004 C 295.772 373.002, 294.176 373.860, 292.840 374.911 M 620.411 390 C 620.411 399.625, 620.561 403.563, 620.745 398.750 C 620.928 393.938, 620.928 386.063, 620.745 381.250 C 620.561 376.438, 620.411 380.375, 620.411 390 M 713.784 385.738 C 716.689 385.941, 721.189 385.939, 723.784 385.734 C 726.378 385.528, 724 385.363, 718.500 385.365 C 713 385.368, 710.878 385.536, 713.784 385.738 M 712.280 397.736 C 714.909 397.943, 718.959 397.940, 721.280 397.731 C 723.601 397.521, 721.450 397.352, 716.500 397.355 C 711.550 397.358, 709.651 397.530, 712.280 397.736 M 713.750 410.737 C 716.638 410.939, 721.362 410.939, 724.250 410.737 C 727.138 410.535, 724.775 410.370, 719 410.370 C 713.225 410.370, 710.862 410.535, 713.750 410.737 M 882.405 456.500 C 882.406 465.300, 882.559 468.766, 882.745 464.203 C 882.930 459.639, 882.929 452.439, 882.742 448.203 C 882.555 443.966, 882.404 447.700, 882.405 456.500 M 925.445 472 C 925.445 489.325, 925.582 496.413, 925.748 487.750 C 925.915 479.087, 925.915 464.913, 925.748 456.250 C 925.582 447.587, 925.445 454.675, 925.445 472 M 907.425 463 C 907.425 474.825, 907.569 479.663, 907.746 473.750 C 907.923 467.837, 907.923 458.163, 907.746 452.250 C 907.569 446.337, 907.425 451.175, 907.425 463 M 714.397 470 C 714.397 477.975, 714.553 481.238, 714.743 477.250 C 714.932 473.262, 714.932 466.738, 714.743 462.750 C 714.553 458.762, 714.397 462.025, 714.397 470 M 605.413 475.500 C 605.414 485.400, 605.564 489.315, 605.746 484.199 C 605.928 479.084, 605.927 470.984, 605.744 466.199 C 605.561 461.415, 605.412 465.600, 605.413 475.500 M 627.413 475.500 C 627.414 485.400, 627.564 489.315, 627.746 484.199 C 627.928 479.084, 627.927 470.984, 627.744 466.199 C 627.561 461.415, 627.412 465.600, 627.413 475.500 M 684.417 476.500 C 684.418 486.950, 684.566 491.089, 684.746 485.698 C 684.926 480.307, 684.925 471.757, 684.744 466.698 C 684.563 461.639, 684.416 466.050, 684.417 476.500 M 518.343 467.500 C 518.346 471.900, 518.522 473.576, 518.733 471.224 C 518.945 468.872, 518.942 465.272, 518.727 463.224 C 518.512 461.176, 518.339 463.100, 518.343 467.500 M 667.411 477 C 667.411 486.625, 667.561 490.563, 667.745 485.750 C 667.928 480.938, 667.928 473.063, 667.745 468.250 C 667.561 463.438, 667.411 467.375, 667.411 477 M 934.343 467.500 C 934.346 471.900, 934.522 473.576, 934.733 471.224 C 934.945 468.872, 934.942 465.272, 934.727 463.224 C 934.512 461.176, 934.339 463.100, 934.343 467.500 M 856.336 468 C 856.336 472.125, 856.513 473.813, 856.728 471.750 C 856.944 469.688, 856.944 466.313, 856.728 464.250 C 856.513 462.188, 856.336 463.875, 856.336 468 M 714.370 509 C 714.370 514.775, 714.535 517.138, 714.737 514.250 C 714.939 511.363, 714.939 506.637, 714.737 503.750 C 714.535 500.863, 714.370 503.225, 714.370 509 M 697 518.623 C 697 521.399, 700.800 523.111, 706.141 522.741 L 711.500 522.370 705.807 522.185 C 701.180 522.035, 699.822 521.584, 698.557 519.777 C 697.701 518.555, 697 518.035, 697 518.623 M 891.280 523.736 C 893.909 523.943, 897.959 523.940, 900.280 523.731 C 902.601 523.521, 900.450 523.352, 895.500 523.355 C 890.550 523.358, 888.651 523.530, 891.280 523.736" stroke="none" fill="#ece4fb" fill-rule="evenodd"/><path d="M 315.500 316.597 C 298.636 320.361, 284.288 328.067, 271.361 340.304 C 245.460 364.821, 236.094 400.629, 246.724 434.500 C 251.555 449.891, 258.058 460.387, 272.418 475.969 C 277.089 481.037, 281.812 487.055, 282.913 489.342 C 284.014 491.629, 286.029 498.781, 287.391 505.235 C 290.336 519.195, 293.944 526.578, 301.582 534.277 C 311.647 544.423, 322.395 548.458, 337.719 547.842 C 346.517 547.489, 348.321 547.070, 355.292 543.759 C 370.734 536.426, 378.889 524.590, 383.031 503.500 C 385.707 489.874, 388.009 485.521, 398.768 473.742 C 412.574 458.629, 418.929 448.017, 423.590 432.297 C 426.802 421.462, 427.891 403.825, 426.053 392.427 C 422.120 368.048, 407.528 344.779, 387.554 331.037 C 380.635 326.276, 367.957 320.280, 359.883 317.949 C 349.849 315.053, 325.713 314.317, 315.500 316.597 M 805.035 337.934 C 803.680 340.466, 803.664 391.249, 805.016 396.118 C 808.161 407.439, 818.049 412.474, 833.375 410.559 C 840.120 409.716, 842.874 407.666, 843.633 402.924 C 844.516 397.407, 842.145 395.612, 835.040 396.416 C 827.621 397.255, 823.464 395.769, 822.073 391.778 C 821.483 390.086, 821 383.186, 821 376.444 L 821 364.187 831.082 363.844 C 842.144 363.467, 844 362.472, 844 356.920 C 844 351.430, 841.506 350.058, 831 349.765 L 821.500 349.500 821.190 344.030 C 821.020 341.022, 820.402 337.984, 819.818 337.280 C 819.159 336.486, 816.347 336, 812.413 336 C 807.166 336, 805.892 336.334, 805.035 337.934 M 531.340 350.369 C 519.901 354.128, 514.974 363.820, 519.574 373.514 C 521.962 378.548, 527.351 381.584, 539.961 385 C 552.251 388.330, 554 389.215, 554 392.099 C 554 395.916, 549.351 397.532, 539.537 397.127 C 534.567 396.921, 528.025 396.696, 525 396.627 L 519.500 396.500 519.198 401.193 C 518.823 407.002, 520.567 408.414, 530 409.936 C 543.665 412.141, 555.418 410.683, 562.474 405.907 C 566.601 403.113, 570 396.833, 570 392 C 570 387.175, 566.603 380.888, 562.492 378.106 C 560.547 376.789, 553.868 374.276, 547.651 372.522 C 541.434 370.768, 535.819 369.006, 535.174 368.607 C 533.344 367.476, 533.794 364.181, 535.934 363.035 C 538.376 361.729, 552.120 361.731, 557.790 363.038 C 563.726 364.408, 566.005 363.066, 565.985 358.215 C 565.966 353.600, 565.244 352.435, 561.480 350.948 C 556.873 349.128, 536.318 348.733, 531.340 350.369 M 595.309 350.643 C 593.004 351.459, 589.541 353.872, 587.615 356.004 C 582.104 362.105, 581 367.530, 581 388.527 C 581 409.698, 581.123 410, 589.772 410 C 597.712 410, 598 409.207, 598 387.333 C 598 369.513, 598.053 369.050, 600.413 366.306 C 602.601 363.763, 603.440 363.500, 609.378 363.500 C 620.042 363.500, 620.940 365.646, 620.976 391.215 C 621.003 410.099, 620.961 410, 629 410 C 637.082 410, 636.993 410.220, 637.056 390.215 C 637.091 379.246, 637.567 371.177, 638.306 369.026 C 639.882 364.440, 643.169 362.820, 649.919 363.304 C 654.301 363.618, 655.785 364.212, 657.669 366.402 C 659.919 369.017, 660.001 369.727, 660.015 386.806 C 660.033 408.508, 660.329 409.373, 667.884 409.806 C 676.855 410.321, 677 409.982, 677 388.527 C 677 366.436, 675.903 361.530, 669.612 355.473 C 664.493 350.543, 659.653 348.997, 649.384 349.010 C 643.177 349.017, 640.405 349.530, 636.352 351.417 C 633.520 352.735, 630.708 354.643, 630.102 355.657 C 629.031 357.448, 628.969 357.448, 627.898 355.657 C 627.292 354.643, 624.480 352.735, 621.648 351.417 C 617.429 349.452, 614.966 349.032, 608 349.089 C 603.213 349.128, 597.669 349.807, 595.309 350.643 M 700.508 350.118 C 694.052 351.424, 692 353.333, 692 358.033 C 692 363.935, 693.397 364.472, 705.274 363.131 C 716.801 361.831, 721.844 362.565, 725.597 366.091 C 726.918 367.333, 728 369.336, 728 370.544 C 728 372.670, 727.581 372.754, 714.750 373.218 C 699.969 373.751, 695.927 374.921, 691.764 379.869 C 686.719 385.864, 686.933 397.576, 692.196 403.570 C 696.584 408.568, 702.547 410, 718.970 410 C 731.091 410, 733.063 409.754, 737.038 407.750 C 744.129 404.174, 744.997 401.446, 744.998 382.718 C 745 365.505, 744.206 361.936, 739.197 356.658 C 733.897 351.074, 729.609 349.667, 717 349.375 C 710.675 349.228, 703.254 349.562, 700.508 350.118 M 775.403 350.049 C 767.394 351.095, 762.574 353.195, 760.328 356.619 C 758.715 359.078, 758.463 362.157, 758.183 382.800 C 757.813 410.029, 757.805 410, 766.221 410 C 775.291 410, 775 410.731, 775 387.965 C 775 363.983, 774.992 364, 785.345 364 C 792.968 364, 795 362.385, 795 356.326 C 795 349.116, 791.397 347.962, 775.403 350.049 M 292.840 374.911 C 291.504 375.962, 289.564 378.395, 288.529 380.317 C 286.804 383.519, 286.777 384.010, 288.202 386.185 C 289.057 387.491, 299.824 396.180, 312.129 405.495 C 332.613 421.002, 334.837 422.425, 338.500 422.372 C 343.993 422.293, 376.714 403.988, 377.588 400.506 C 378.625 396.375, 373.270 387.998, 369.595 388.002 C 368.443 388.004, 361.480 391.379, 354.123 395.502 C 346.765 399.626, 340.114 403, 339.342 403 C 338.569 403, 330.655 397.488, 321.754 390.750 C 303.027 376.574, 297.932 373.010, 296.385 373.004 C 295.772 373.002, 294.176 373.860, 292.840 374.911 M 707 386.288 C 705.141 387.223, 704.422 388.478, 704.195 391.178 C 703.749 396.503, 706.401 398, 716.288 398 C 726.917 398, 728 397.303, 728 390.465 L 728 385 718.750 385.015 C 713.339 385.023, 708.463 385.552, 707 386.288 M 773.026 422.964 C 767.046 423.886, 766.941 424.592, 767.236 461.832 C 767.487 493.508, 767.596 495.234, 769.441 496.582 C 772.457 498.785, 780.585 498.415, 783.037 495.963 C 785.020 493.980, 785.067 492.999, 784.787 459.545 C 784.629 440.636, 784.198 424.863, 783.829 424.495 C 782.610 423.278, 776.557 422.420, 773.026 422.964 M 542.203 437.137 C 527.098 439.590, 518.994 450.123, 519.006 467.288 C 519.012 477.040, 520.055 481.292, 523.813 486.888 C 527.284 492.055, 532.012 495.332, 538.986 497.403 C 545.678 499.390, 551.623 499.421, 561.562 497.520 C 570.501 495.809, 573 494.039, 573 489.416 C 573 485.151, 570.510 482.632, 567.092 483.440 C 565.666 483.777, 560.675 484.320, 556 484.648 C 549.538 485.100, 546.620 484.874, 543.828 483.705 C 540.289 482.223, 536.125 477.542, 537.300 476.367 C 537.614 476.053, 543.637 475.174, 550.685 474.413 C 564.689 472.902, 567.114 472.480, 571.297 470.825 C 578.661 467.912, 579.042 452.673, 571.953 444.599 C 566.439 438.319, 554.055 435.212, 542.203 437.137 M 608.859 437 C 599.310 438.653, 592.771 443.794, 590.048 451.789 C 589.292 454.006, 588.579 463.201, 588.276 474.634 C 587.785 493.131, 587.838 493.838, 589.884 495.884 C 592.464 498.464, 599.460 498.767, 602.777 496.443 C 604.934 494.933, 605 494.353, 605 476.894 C 605 457.225, 605.772 453.798, 610.613 451.957 C 615.362 450.152, 621.658 450.802, 624.694 453.411 C 627.500 455.823, 627.500 455.823, 627.781 475.161 C 628.045 493.337, 628.187 494.605, 630.142 496.250 C 632.681 498.387, 639.826 498.578, 642.559 496.583 C 644.330 495.289, 644.546 493.474, 645.026 475.833 C 645.315 465.200, 645.902 455.773, 646.331 454.885 C 648.039 451.346, 657.137 449.738, 662.257 452.071 C 666.974 454.220, 667.454 456.280, 667.993 476.670 C 668.272 487.214, 668.828 496.166, 669.228 496.565 C 670.551 497.881, 679.662 498.252, 681.854 497.078 C 683.938 495.963, 684 495.358, 684 476.002 C 684 448.926, 682.241 444.091, 670.504 438.899 C 662.976 435.569, 651.011 435.781, 643.664 439.376 C 640.655 440.848, 637.912 442.787, 637.567 443.685 C 637.029 445.088, 636.558 444.951, 634.220 442.712 C 628.990 437.702, 618.478 435.335, 608.859 437 M 714.287 436.973 C 705.191 438.368, 699.735 442.913, 697.957 450.577 C 697.457 452.735, 697.037 468.687, 697.024 486.027 C 696.996 523.122, 696.720 522, 705.857 522 C 709.016 522, 712.140 521.460, 712.800 520.800 C 713.578 520.022, 714 515.978, 714 509.300 L 714 499 721.333 499 C 744.977 499, 755.852 490.135, 756.811 470.079 C 757.396 457.824, 755.338 451.052, 749.143 444.857 C 745.680 441.394, 743.070 439.802, 738.991 438.664 C 731.965 436.704, 720.956 435.951, 714.287 436.973 M 818.479 436.988 C 809.589 438.295, 801.512 443.950, 797.694 451.542 C 792.217 462.430, 793.813 480.465, 801.028 489.218 C 810.959 501.266, 836.558 502.206, 847.828 490.937 C 853.387 485.378, 856 478.089, 856 468.144 C 856 454.225, 851.232 444.710, 841.862 439.930 C 838.834 438.385, 826.141 435.695, 824 436.145 C 823.725 436.202, 821.241 436.582, 818.479 436.988 M 958.203 437.137 C 943.014 439.603, 935 450.099, 935 467.527 C 935 489.068, 947.502 500.353, 969.458 498.633 C 984.090 497.486, 989 495.170, 989 489.416 C 989 485.151, 986.510 482.632, 983.092 483.440 C 981.666 483.777, 976.675 484.320, 972 484.648 C 965.538 485.100, 962.620 484.874, 959.828 483.705 C 956.276 482.218, 952.126 477.541, 953.309 476.358 C 953.627 476.039, 960.101 475.136, 967.694 474.351 C 983.998 472.666, 989.444 470.977, 991.521 466.959 C 994.583 461.038, 992.849 450.176, 987.953 444.599 C 982.439 438.319, 970.055 435.212, 958.203 437.137 M 1024.361 437.002 C 1021.534 437.416, 1016.920 439.007, 1014.106 440.539 C 1004.746 445.633, 1000.794 453.405, 1000.651 467 C 1000.496 481.730, 1005.095 490.452, 1015.770 495.677 C 1020.748 498.113, 1022.681 498.482, 1030.500 498.490 C 1042.403 498.503, 1051.658 496.452, 1053.689 493.351 C 1055.557 490.501, 1054.723 484.491, 1052.332 483.574 C 1051.445 483.233, 1048.112 483.467, 1044.927 484.094 C 1041.742 484.721, 1035.971 485.055, 1032.102 484.836 C 1025.982 484.490, 1024.673 484.061, 1022.034 481.532 C 1016.371 476.107, 1016.920 475.790, 1035 474.032 C 1041.325 473.417, 1048.104 472.488, 1050.065 471.968 C 1057.429 470.015, 1060.470 462.902, 1058.052 453.284 C 1055.681 443.850, 1049.591 438.951, 1037.871 437.049 C 1034.367 436.480, 1031.050 436.068, 1030.500 436.132 C 1029.950 436.197, 1027.187 436.588, 1024.361 437.002 M 913 437.821 C 908.294 438.424, 908 439.881, 908 462.580 L 908 483.777 904.415 484.450 C 898.279 485.601, 890.087 484.050, 886.815 481.118 C 882.861 477.574, 882.052 473.240, 882.024 455.450 C 882.007 445.106, 881.625 440.025, 880.800 439.200 C 880.122 438.522, 876.874 438, 873.335 438 C 864.703 438, 864.667 438.099, 865.273 459.887 C 865.826 479.775, 866.617 483.147, 872.224 489.517 C 877.511 495.523, 884.480 498.043, 897.750 498.745 C 906.754 499.221, 908 499.506, 908 501.088 C 908 502.078, 906.974 504.081, 905.721 505.538 C 902.576 509.194, 896.628 510.167, 885.689 508.813 C 879.404 508.035, 876.569 508.031, 875.802 508.798 C 874.349 510.251, 874.436 517.616, 875.929 519.414 C 878.922 523.021, 899.446 524.245, 909.061 521.389 C 915.761 519.400, 922.269 513.299, 923.879 507.497 C 925.530 501.552, 925.414 440.578, 923.750 439.241 C 922.320 438.092, 916.686 437.348, 913 437.821 M 543.270 450.424 C 539.572 452.099, 536.009 457.307, 536.004 461.047 C 536 463.594, 536 463.594, 547.340 462.455 C 553.577 461.829, 559.202 460.993, 559.840 460.599 C 561.726 459.433, 561.169 455.305, 558.750 452.525 C 555.910 449.261, 548.160 448.209, 543.270 450.424 M 959.270 450.424 C 955.563 452.103, 952.009 457.309, 952.004 461.069 L 952 463.639 963.462 462.401 C 969.767 461.721, 975.392 460.876, 975.962 460.523 C 977.848 459.358, 977.078 454.422, 974.655 452.146 C 971.606 449.281, 963.738 448.400, 959.270 450.424 M 1026.500 449.850 C 1021.595 451.445, 1018.398 455.368, 1017.831 460.492 C 1017.508 463.410, 1017.598 463.476, 1021.500 463.192 C 1029.060 462.642, 1041.127 461.040, 1042.063 460.461 C 1043.321 459.683, 1043.249 456.334, 1041.920 453.850 C 1039.916 450.107, 1032.014 448.057, 1026.500 449.850 M 716.441 452.417 C 714.696 453.691, 714.468 455.352, 714.179 468.836 L 713.858 483.838 719.325 484.521 C 729.024 485.733, 736.263 483.007, 738.676 477.234 C 739.718 474.739, 740.084 471.235, 739.843 466.050 C 739.449 457.553, 737.513 453.807, 732.601 452.042 C 728.373 450.522, 718.729 450.747, 716.441 452.417 M 817.763 452.565 C 813.585 454.832, 811.866 459.146, 811.834 467.445 C 811.787 479.451, 815.637 484.214, 825.507 484.356 C 834.854 484.491, 838.827 479.587, 838.944 467.770 C 839.014 460.592, 836.795 454.901, 833.066 452.698 C 829.521 450.604, 821.505 450.535, 817.763 452.565" stroke="none" fill="#8d5df7" fill-rule="evenodd"/></svg>